<svg width="28" height="24" viewBox="0 0 28 24" fill="none" xmlns="http://www.w3.org/2000/svg">
<path d="M9.3342 20.0789C6.4679 20.0789 3.6016 20.0789 0.734557 20.0789C0.67249 20.0789 0.609676 20.0804 0.547609 20.0789C0.151277 20.0662 0.118374 20.0139 0.313549 19.674C0.934219 18.5944 1.55713 17.5164 2.18005 16.4383C5.13459 11.329 8.11081 6.23232 11.019 1.09757C11.4886 0.2683 11.9829 -0.0820853 12.9281 0.0150363C13.7911 0.10394 14.6712 0.0322194 15.5431 0.0352077C15.9522 0.0367019 15.9649 0.0598617 15.7555 0.422947C13.4575 4.4012 11.1596 8.37945 8.86085 12.3577C8.16316 13.565 7.46546 14.7723 6.76852 15.9803C6.5711 16.3233 6.57185 16.3262 6.97192 16.327C9.95039 16.3277 12.9289 16.3345 15.9073 16.3195C16.2805 16.318 16.4951 16.4301 16.6753 16.7596C17.2018 17.7203 17.7641 18.6609 18.3092 19.6112C18.559 20.0467 18.5418 20.0774 18.0453 20.0774C15.1416 20.0789 12.2379 20.0774 9.33346 20.0781L9.3342 20.0789Z" fill="white" style="mix-blend-mode:hard-light"/>
<path d="M9.13369 16.129C8.59752 16.129 8.06209 16.129 7.52593 16.129C6.93218 16.129 6.92844 16.1245 7.23279 15.5971C8.39711 13.5807 9.56292 11.5658 10.728 9.55011C12.4531 6.56399 14.1776 3.57788 15.905 0.593254C15.9768 0.469985 16.0112 0.269018 16.1787 0.271259C16.3424 0.2735 16.3783 0.472226 16.4501 0.59699C20.1405 6.97639 23.8264 13.3588 27.5227 19.7352C27.7022 20.0445 27.7089 20.285 27.5257 20.5899C26.9484 21.5499 26.3973 22.5256 25.832 23.493C25.6129 23.8673 25.5732 23.8666 25.3616 23.5005C23.9595 21.0755 22.5589 18.6497 21.1575 16.2246C19.5572 13.4544 17.9547 10.6849 16.3604 7.911C16.1959 7.62411 16.1211 7.68538 15.982 7.92669C14.5051 10.4952 13.014 13.0555 11.5468 15.6299C11.3352 16.002 11.0996 16.1708 10.6652 16.1387C10.1567 16.1013 9.64368 16.1297 9.13294 16.1297L9.13369 16.129Z" fill="white" style="mix-blend-mode:hard-light"/>
<path d="M13.7807 23.9935C10.0925 23.9935 6.40365 23.989 2.71552 24.001C2.37303 24.0017 2.17113 23.8979 2.00437 23.5976C1.47194 22.6405 0.913336 21.6977 0.363706 20.7497C0.113943 20.3193 0.131142 20.2857 0.625435 20.285C6.53227 20.285 12.4384 20.285 18.3452 20.2812C18.5112 20.2812 18.746 20.3731 18.8305 20.2162C18.9113 20.0661 18.7228 19.9054 18.6383 19.759C17.1592 17.1913 15.6801 14.6243 14.1912 12.0625C14.0618 11.8399 14.0558 11.6748 14.1889 11.4499C14.7864 10.4436 15.3645 9.42602 15.95 8.41297C16.1497 8.06707 16.2058 8.06632 16.4047 8.41148C19.3248 13.467 22.2449 18.5233 25.1651 23.5796C25.3962 23.9801 25.3879 23.9935 24.9221 23.9935C21.2085 23.9943 17.495 23.9935 13.7821 23.9935H13.7807Z" fill="white" style="mix-blend-mode:hard-light"/>
</svg>
